<?xml version="1.0" encoding="UTF-8"?>
<svg version="1.1" xmlns="http://www.w3.org/2000/svg" width="256" height="256">
<path d="M0 0 C10.69967513 7.10112969 19.47220189 16.5653651 22.828125 29.265625 C25.18534358 45.0063904 23.71679435 59.0904046 14.1796875 72.16796875 C12.30078125 74.421875 12.30078125 74.421875 9.578125 76.5703125 C6.19782172 80.80293925 6.95491721 84.38664493 7.30078125 89.609375 C7.58186681 97.74137509 7.32691974 103.6812811 2.30078125 110.421875 C1.74390625 111.329375 1.18703125 112.236875 0.61328125 113.171875 C-4.82023459 118.45853906 -11.66540692 122.53475069 -19.33403015 122.56231689 C-20.28580643 122.56802704 -21.2375827 122.57373718 -22.21820068 122.57962036 C-23.26083069 122.58073822 -24.30346069 122.58185608 -25.37768555 122.58300781 C-26.47718033 122.58797272 -27.57667511 122.59293762 -28.70948792 122.59805298 C-32.35581076 122.61268665 -36.00209008 122.6194793 -39.6484375 122.625 C-42.18089296 122.63075128 -44.7133484 122.63650902 -47.24580383 122.64227295 C-51.88157917 122.65144254 -56.51734144 122.65774089 -61.15312356 122.6607697 C-67.96361202 122.66524433 -74.77389917 122.68276461 -81.58432645 122.7117703 C-87.49230607 122.73605371 -93.40023597 122.74371712 -99.30826759 122.74544525 C-101.81643582 122.74846936 -104.32460325 122.75648968 -106.83273888 122.76963043 C-110.34657306 122.78672322 -113.85992017 122.78480224 -117.3737793 122.77832031 C-118.40628815 122.7875351 -119.438797 122.79674988 -120.50259399 122.8062439 C-130.11024328 122.75084703 -137.65203423 120.13417265 -144.69921875 113.421875 C-150.53528098 106.33338349 -153.23549259 99.25184109 -153.01171875 90.03515625 C-151.8740897 80.52173331 -146.35457284 72.25006792 -139.13671875 66.171875 C-133.00889937 61.83380557 -125.16855182 59.421875 -117.69921875 59.421875 C-117.66054687 58.38740234 -117.66054687 58.38740234 -117.62109375 57.33203125 C-116.94665007 46.15772578 -112.96014941 37.11363014 -104.59375 29.5078125 C-96.26793228 22.77264154 -87.64390383 18.24717688 -76.69946289 18.29858398 C-70.29789813 18.41736555 -70.29789813 18.41736555 -64.64453125 15.86328125 C-63.22426569 13.86938793 -63.22426569 13.86938793 -62.03125 11.6796875 C-57.02231042 3.18946146 -47.49026833 -1.56999548 -38.5 -4.6875 C-25.720272 -7.68213308 -11.38288013 -6.65511371 0 0 Z " fill="#1976D1" transform="translate(168.69921875,93.578125)"/>
<path d="M0 0 C10.69967513 7.10112969 19.47220189 16.5653651 22.828125 29.265625 C24.98633572 43.67747842 24.1322203 57.39754437 15.98828125 69.796875 C12.85489007 74.00185883 9.43671977 77.21441248 5.30078125 80.421875 C4.96046875 79.85339844 4.62015625 79.28492188 4.26953125 78.69921875 C-0.7672023 70.67527355 -6.45510574 64.39319704 -15.69921875 61.421875 C-18.37637629 60.94499156 -20.98481218 60.65998084 -23.69921875 60.421875 C-23.84617188 59.59945312 -23.993125 58.77703125 -24.14453125 57.9296875 C-26.66007003 45.40982206 -31.81389582 36.04403878 -42.28515625 28.578125 C-50.04891034 23.66593743 -57.83348398 21.37185218 -66.69921875 19.421875 C-63.3439688 10.05310945 -54.89760965 2.42991764 -46.04296875 -1.8671875 C-31.44956441 -7.83331457 -13.82441155 -8.08257926 0 0 Z " fill="#FE9F00" transform="translate(168.69921875,93.578125)"/>
<path d="M0 0 C2.85695513 1.71417308 3.01592889 3.05628208 3.9375 6.3125 C4.02775279 11.63741478 1.57168659 14.28998714 -1.8918457 18.05834961 C-4.10771845 20.34023244 -6.35790237 22.58153899 -8.625 24.8125 C-9.78902344 25.97555664 -9.78902344 25.97555664 -10.9765625 27.16210938 C-17.76817157 33.900659 -17.76817157 33.900659 -22.875 34.3125 C-25.82968653 34.25340627 -26.89058393 34.06564964 -29.5 32.5 C-31.19476241 29.67539598 -31.76085995 27.42591685 -31.5546875 24.12109375 C-30.41125809 19.74868409 -27.14678197 17.08037261 -24 14 C-22.92495272 12.89399408 -21.85220888 11.7857465 -20.78125 10.67578125 C-19.626358 9.49086239 -18.47009937 8.30727405 -17.3125 7.125 C-16.75409424 6.55305908 -16.19568848 5.98111816 -15.62036133 5.3918457 C-10.43348099 0.19875818 -7.5917495 -1.79441352 0 0 Z " fill="#202020" transform="translate(211,66)"/>
<path d="M0 0 C2.95809866 2.02609498 5.44269946 4.49614786 8 7 C8.53206055 7.51836426 9.06412109 8.03672852 9.61230469 8.57080078 C21.88378053 20.5588786 21.88378053 20.5588786 22.3125 25.875 C22.25340627 28.82968653 22.06564964 29.89058393 20.5 32.5 C17.67539598 34.19476241 15.42591685 34.76085995 12.12109375 34.5546875 C7.74868409 33.41125809 5.08037261 30.14678197 2 27 C0.89399408 25.92495272 -0.2142535 24.85220888 -1.32421875 23.78125 C-2.50913761 22.626358 -3.69272595 21.47009937 -4.875 20.3125 C-5.44694092 19.75409424 -6.01888184 19.19568848 -6.6081543 18.62036133 C-11.89329364 13.3415392 -11.89329364 13.3415392 -13 10 C-12.68041237 3.92783505 -12.68041237 3.92783505 -10.625 1.125 C-6.91303031 -1.44482517 -4.17576204 -1.26060741 0 0 Z " fill="#202020" transform="translate(86,66)"/>
<path d="M0 0 C1.04269043 -0.00574036 1.04269043 -0.00574036 2.10644531 -0.01159668 C3.57228041 -0.0143118 5.03816428 -0.00697835 6.50390625 0.00976562 C8.74328975 0.03118581 10.97946587 0.00995557 13.21875 -0.015625 C14.64584039 -0.01298165 16.07292879 -0.0078565 17.5 0 C19.44132812 0.00676758 19.44132812 0.00676758 21.421875 0.01367188 C25.25919979 0.61043894 26.44070951 1.47408051 28.75 4.53125 C29.28125 6.53125 29.28125 6.53125 29.25 8.53125 C29.2603125 9.19125 29.270625 9.85125 29.28125 10.53125 C28.48927074 13.51281897 27.16446325 14.62735121 24.75 16.53125 C21.421875 17.04882812 21.421875 17.04882812 17.5 17.0625 C16.80487305 17.0663269 16.10974609 17.07015381 15.39355469 17.07409668 C13.92771959 17.0768118 12.46183572 17.06947835 10.99609375 17.05273438 C8.75671025 17.03131419 6.52053413 17.05254443 4.28125 17.078125 C2.85415961 17.07548165 1.42707121 17.0703565 0 17.0625 C-1.29421875 17.05798828 -2.5884375 17.05347656 -3.921875 17.04882812 C-7.75919979 16.45206106 -8.94070951 15.58841949 -11.25 12.53125 C-11.78125 10.53125 -11.78125 10.53125 -11.75 8.53125 C-11.76546875 7.54125 -11.76546875 7.54125 -11.78125 6.53125 C-10.16044839 0.42940865 -5.57509951 0.01943511 0 0 Z " fill="#202020" transform="translate(211.25,127.46875)"/>
<path d="M0 0 C0.66 -0.0103125 1.32 -0.020625 2 -0.03125 C4.98156897 0.76072926 6.09610121 2.08553675 8 4.5 C8.51757812 7.828125 8.51757812 7.828125 8.53125 11.75 C8.5350769 12.44512695 8.53890381 13.14025391 8.54284668 13.85644531 C8.5455618 15.32228041 8.53822835 16.78816428 8.52148438 18.25390625 C8.50006419 20.49328975 8.52129443 22.72946587 8.546875 24.96875 C8.54423165 26.39584039 8.5391065 27.82292879 8.53125 29.25 C8.52673828 30.54421875 8.52222656 31.8384375 8.51757812 33.171875 C7.92081106 37.00919979 7.05716949 38.19070951 4 40.5 C2 41.03125 2 41.03125 0 41 C-0.99 41.01546875 -0.99 41.01546875 -2 41.03125 C-4.98156897 40.23927074 -6.09610121 38.91446325 -8 36.5 C-8.51757812 33.171875 -8.51757812 33.171875 -8.53125 29.25 C-8.5350769 28.55487305 -8.53890381 27.85974609 -8.54284668 27.14355469 C-8.5455618 25.67771959 -8.53822835 24.21183572 -8.52148438 22.74609375 C-8.50006419 20.50671025 -8.52129443 18.27053413 -8.546875 16.03125 C-8.54423165 14.60415961 -8.5391065 13.17707121 -8.53125 11.75 C-8.52673828 10.45578125 -8.52222656 9.1615625 -8.51757812 7.828125 C-7.7418101 2.83979026 -5.19836111 -0.08122439 0 0 Z " fill="#202020" transform="translate(144,39.5)"/>
<path d="M0 0 C4.34020472 1.15844587 7.07943771 4.43874238 10.13671875 7.5703125 C10.93980469 8.33859375 11.74289063 9.106875 12.5703125 9.8984375 C19.7349942 16.82238589 19.7349942 16.82238589 21.13671875 20.5703125 C20.96004063 23.9271967 20.7582113 26.53449158 19.01171875 29.4453125 C16.00110376 31.25168149 13.63229507 31.51106544 10.13671875 31.5703125 C5.13684802 28.75005116 1.31962886 25.02728224 -2.67578125 20.9453125 C-3.26037109 20.36007813 -3.84496094 19.77484375 -4.44726562 19.171875 C-9.7641498 13.79954243 -9.7641498 13.79954243 -10.17578125 8.6953125 C-10.11668752 5.74062597 -9.92893089 4.67972857 -8.36328125 2.0703125 C-5.54679241 0.38041919 -3.29576318 -0.18275951 0 0 Z " fill="#202020" transform="translate(193.86328125,175.4296875)"/>
</svg>
